<?xml version="1.0" standalone="no"?>
<!DOCTYPE svg PUBLIC "-//W3C//DTD SVG 20010904//EN"
 "http://www.w3.org/TR/2001/REC-SVG-20010904/DTD/svg10.dtd">
<svg version="1.0" xmlns="http://www.w3.org/2000/svg"
 width="500.000000pt" height="500.000000pt" viewBox="0 0 500.000000 500.000000"
 preserveAspectRatio="xMidYMid meet">
<metadata>
Created by potrace 1.14, written by Peter Selinger 2001-2017
</metadata>
<g transform="translate(0.000000,500.000000) scale(0.100000,-0.100000)"
fill="#000000" stroke="none">
<path d="M1369 4160 c-1 -20 -1 -2164 0 -2211 l1 -35 1124 0 c618 1 1127 4
1131 7 8 9 8 2239 0 2248 -4 3 -513 6 -1131 6 -999 0 -1124 -1 -1125 -15z
m353 -81 c64 -34 93 -87 86 -160 -6 -62 -31 -97 -87 -126 -112 -57 -241 32
-228 160 2 28 10 53 16 55 6 2 11 10 11 17 0 17 51 54 88 65 32 9 86 4 114
-11z m1210 3 c9 -9 13 -52 13 -148 0 -116 -2 -137 -17 -148 -13 -9 -136 -12
-517 -12 -274 1 -503 5 -507 9 -5 4 -9 71 -9 148 -1 122 1 142 16 152 25 18
1003 17 1021 -1z m568 -2 c13 -20 12 -271 0 -290 -8 -13 -45 -15 -230 -16
-199 0 -223 1 -234 17 -8 12 -11 61 -11 149 1 109 4 134 17 144 11 8 83 11
232 11 180 0 219 -3 226 -15z m38 -402 c9 -9 12 -209 12 -840 0 -814 0 -829
-20 -836 -10 -4 -479 -7 -1040 -7 -894 0 -1022 2 -1030 15 -15 24 -13 1653 2
1668 17 17 2059 17 2076 0z"/>
<path d="M1619 4006 c-58 -29 -62 -98 -7 -139 22 -17 31 -18 58 -8 41 14 59
37 60 77 0 27 -29 73 -48 75 -4 0 -14 2 -23 4 -9 1 -27 -2 -40 -9z"/>
<path d="M1979 4015 c-1 0 -3 -36 -4 -81 l-1 -81 75 2 c42 1 79 3 83 3 4 1 6
37 5 79 l-2 78 -77 0 c-43 0 -79 0 -79 0z"/>
<path d="M2216 4010 c-2 -5 1 -137 3 -151 1 -3 36 -6 79 -5 l77 1 0 80 0 80
-78 0 c-43 0 -80 -2 -81 -5z"/>
<path d="M2464 4005 c-3 -7 -4 -43 -2 -81 l3 -69 77 -1 76 -2 4 59 c5 101 4
103 -81 105 -49 1 -74 -3 -77 -11z"/>
<path d="M2703 3935 l2 -80 77 -1 c48 0 78 3 80 10 3 9 3 85 -1 137 -1 14 -14
16 -81 15 l-80 -1 3 -80z"/>
<path d="M3105 3935 l1 -80 162 -1 162 0 0 81 0 81 -163 0 -163 -1 1 -80z"/>
<path d="M1530 3570 l0 -40 970 0 970 0 0 40 0 40 -970 0 -970 0 0 -40z"/>
<path d="M1530 3410 c0 -25 5 -40 13 -40 21 -1 640 -1 678 -1 35 1 36 2 37 41
l2 40 -365 0 -365 0 0 -40z"/>
<path d="M2339 3438 c0 -7 -1 -61 -2 -120 -2 -90 1 -108 13 -109 8 -1 81 -2
162 -3 l148 -1 0 123 0 122 -160 0 c-121 0 -160 -3 -161 -12z"/>
<path d="M2740 3410 l0 -40 83 -1 c77 -1 293 0 540 1 l107 0 0 40 0 40 -365 0
-365 0 0 -40z"/>
<path d="M1530 2682 l0 -608 160 -1 160 0 1 46 c1 25 0 55 0 67 -4 42 22 49
188 51 86 0 161 2 168 2 9 1 12 53 11 204 0 285 -3 264 30 274 15 5 100 8 190
7 89 -1 162 0 162 1 0 2 -21 17 -47 34 -85 55 -87 58 -93 113 -5 49 -7 52 -33
54 -15 0 -32 5 -37 10 -5 5 -10 50 -12 99 l-3 90 -48 1 c-26 0 -52 5 -58 11
-7 7 -11 43 -11 82 l0 71 -364 0 -364 0 0 -608z"/>
<path d="M2740 3216 c0 -83 -5 -89 -75 -90 l-40 -1 -2 -89 c-3 -96 -14 -116
-60 -111 -20 2 -23 -2 -23 -29 0 -30 9 -38 120 -111 132 -88 125 -78 120 -187
l-2 -38 44 0 44 0 -2 65 c-3 98 -1 100 173 96 65 -1 70 -12 68 -147 -1 -127
-6 -153 -37 -197 -31 -43 -80 -59 -190 -60 l-98 -1 0 -38 c0 -32 3 -38 23 -39
12 0 88 -1 170 -1 170 -1 171 -2 173 -87 1 -31 2 -61 3 -67 1 -7 55 -10 159
-10 l157 1 3 608 2 607 -365 0 -365 0 0 -74z"/>
<path d="M2465 3122 c-3 -3 -5 -30 -5 -61 l0 -56 40 0 40 -1 0 61 0 60 -35 1
c-19 1 -37 -1 -40 -4z"/>
<path d="M2473 2642 c-128 -2 -173 -6 -174 -15 -5 -92 -2 -380 5 -384 7 -5
302 -8 381 -4 19 1 20 7 18 193 -1 106 -2 196 -2 199 -1 12 -52 14 -228 11z"/>
<path d="M2944 2569 c-1 -76 -10 -90 -54 -88 -14 1 -44 1 -67 0 l-43 -1 0 -40
c0 -45 -7 -43 125 -41 60 1 73 5 95 26 22 23 24 32 25 120 l0 95 -40 0 -40 0
-1 -71z"/>
<path d="M1941 2151 c-4 -4 -8 -22 -8 -41 l0 -36 561 2 c309 0 564 2 567 3 4
0 6 18 5 39 l-1 38 -558 0 c-306 0 -561 -2 -566 -5z"/>
<path d="M982 1823 c-30 -6 -93 -84 -108 -132 -15 -52 -9 -176 11 -224 30 -72
105 -127 172 -127 l28 0 -2 107 c-1 60 -2 111 -2 116 -1 4 -12 7 -26 7 -27 0
-27 0 -27 -90 0 -76 -7 -85 -41 -54 -44 40 -60 83 -63 160 -3 112 42 187 111
187 31 0 55 35 34 48 -14 9 -47 10 -87 2z"/>
<path d="M1183 1823 c-10 -4 -13 -61 -13 -242 l0 -238 30 0 30 0 0 79 c0 43 3
79 8 79 26 4 92 4 93 -1 1 -3 3 -36 4 -75 1 -38 3 -73 4 -77 2 -15 51 -4 52
12 4 64 3 460 -1 461 -33 5 -50 4 -53 -5 -2 -6 -3 -64 -2 -130 1 -136 1 -136
-95 -127 -5 1 -11 57 -12 133 -3 135 -6 144 -45 131z"/>
<path d="M1565 1820 c-64 -26 -96 -121 -91 -263 6 -140 42 -206 117 -214 38
-4 50 -1 76 21 19 16 38 47 48 76 17 51 23 165 12 237 -16 111 -87 174 -162
143z m72 -62 c32 -40 48 -179 31 -267 -15 -82 -60 -119 -97 -80 -26 28 -38 75
-40 165 -2 83 8 130 34 170 17 26 56 32 72 12z"/>
<path d="M1844 1811 c-17 -10 -36 -32 -41 -48 -20 -56 -7 -87 97 -230 17 -23
33 -54 36 -70 10 -54 -43 -86 -97 -59 -25 13 -28 12 -38 -12 -16 -34 -3 -44
64 -50 85 -7 136 39 130 119 -3 44 -15 67 -70 139 -46 61 -72 108 -69 128 1 6
2 17 3 22 2 17 44 28 73 19 23 -6 30 -4 39 13 15 27 1 39 -53 45 -31 3 -51 -1
-74 -16z"/>
<path d="M2043 1813 c-10 -26 6 -43 40 -43 l34 0 0 -204 c0 -111 3 -208 7
-214 4 -7 17 -10 29 -8 22 3 22 5 24 207 0 112 1 207 2 212 1 4 17 7 36 7 32
0 35 3 35 28 l0 27 -101 0 c-72 0 -103 -4 -106 -12z"/>
<path d="M2442 1816 c-4 -6 -7 -66 -8 -133 0 -113 1 -121 17 -112 10 5 33 9
53 9 48 0 75 -38 71 -100 -6 -71 -68 -111 -126 -80 -16 9 -21 7 -29 -15 -6
-15 -10 -28 -10 -30 0 -6 84 -19 105 -16 59 6 95 39 113 103 25 92 -22 180
-103 191 -30 4 -30 5 -33 70 l-3 67 61 0 c57 0 60 1 60 25 0 14 -3 25 -7 26
-46 7 -156 3 -161 -5z"/>
<path d="M2800 1798 c0 -24 4 -27 37 -30 l38 -3 0 -207 c0 -115 2 -209 5 -209
31 -8 50 -4 51 10 0 9 1 105 1 214 l1 197 39 0 c34 0 38 3 38 25 0 14 -3 26
-7 26 -5 1 -52 2 -105 3 l-98 2 0 -28z"/>
<path d="M3134 1811 c-50 -31 -77 -107 -77 -221 0 -118 15 -174 58 -217 41
-41 85 -47 131 -16 44 29 68 98 70 206 2 128 -14 192 -60 235 -41 37 -76 41
-122 13z m89 -59 c56 -62 44 -321 -16 -354 -25 -13 -25 -13 -49 9 -51 46 -58
267 -11 339 18 28 53 31 76 6z"/>
<path d="M3470 1823 c-56 -21 -91 -98 -94 -208 -5 -159 32 -254 103 -272 99
-26 160 73 156 253 -2 104 -19 160 -60 201 -32 32 -66 40 -105 26z m82 -94
c35 -70 31 -261 -5 -310 -35 -47 -85 -20 -104 57 -10 41 -10 179 1 223 18 78
77 95 108 30z"/>
<path d="M3719 1825 c-4 0 -3 -475 1 -476 3 -1 44 -2 93 -4 84 -1 87 -1 87 21
0 26 -11 31 -72 29 -28 -1 -49 3 -50 9 0 6 -2 94 -4 196 -1 102 -2 195 -3 206
-1 17 -7 22 -26 20 -14 0 -26 -1 -26 -1z"/>
<path d="M3994 1816 c-38 -17 -59 -63 -51 -113 6 -33 25 -66 109 -181 37 -50
35 -101 -5 -120 -23 -11 -34 -11 -58 -2 -26 11 -32 10 -44 -6 -20 -27 -19 -30
16 -44 92 -38 179 13 179 107 0 42 -19 78 -88 165 -56 72 -63 124 -20 145 18
9 34 10 51 4 21 -8 26 -6 35 14 10 21 8 24 -20 34 -40 14 -66 13 -104 -3z"/>
</g>
</svg>
